<?xml version="1.0" encoding="UTF-8" standalone="no"?>
<svg
   width="123.25"
   height="28"
   role="img"
   aria-label="INSTAGRAM"
   version="1.1"
   id="svg91302"
   sodipodi:docname="donate-gitbutton.svg"
   inkscape:version="1.1 (c68e22c387, 2021-05-23)"
   xmlns:inkscape="http://www.inkscape.org/namespaces/inkscape"
   xmlns:sodipodi="http://sodipodi.sourceforge.net/DTD/sodipodi-0.dtd"
   xmlns="http://www.w3.org/2000/svg"
   xmlns:svg="http://www.w3.org/2000/svg"
   xmlns:rdf="http://www.w3.org/1999/02/22-rdf-syntax-ns#"
   xmlns:cc="http://creativecommons.org/ns#"
   xmlns:dc="http://purl.org/dc/elements/1.1/">
  <defs
     id="defs91306">
    <clipPath
       clipPathUnits="userSpaceOnUse"
       id="clipPath1084">
      <path
         d="M 0,415.968 H 1280 V 0 H 0 Z"
         id="path1082" />
    </clipPath>
  </defs>
  <sodipodi:namedview
     id="namedview91304"
     pagecolor="#ffffff"
     bordercolor="#999999"
     borderopacity="1"
     inkscape:pageshadow="0"
     inkscape:pageopacity="0"
     inkscape:pagecheckerboard="0"
     showgrid="false"
     inkscape:zoom="2.8284271"
     inkscape:cx="70.887455"
     inkscape:cy="12.197592"
     inkscape:window-width="1366"
     inkscape:window-height="697"
     inkscape:window-x="-8"
     inkscape:window-y="-8"
     inkscape:window-maximized="1"
     inkscape:current-layer="svg91302" />
  <title
     id="title91290">PagBank Donate</title>
  <metadata
     id="metadata92755">
    <rdf:RDF>
      <cc:Work
         rdf:about="">
        <dc:title>PagBank Donate</dc:title>
      </cc:Work>
    </rdf:RDF>
  </metadata>
  <path
     id="path104515"
     style="fill:#f9f9f9;fill-opacity:1;stroke-width:4.87214;stroke-linecap:round;stroke-linejoin:round;stop-color:#000000"
     d="M 117.69141,0 C 120.77084,0 123.25,2.4791611 123.25,5.5585938 V 22.441406 C 123.25,25.520839 120.77084,28 117.69141,28 H 56.734127 V 0 Z"
     sodipodi:nodetypes="ssssccs" />
  <path
     id="path1088"
     style="color:#000000;fill:#000000;fill-rule:evenodd;stroke-width:0.0466782;-inkscape-stroke:none"
     d="M 114.30469 9.609375 L 113.48828 13.490234 C 113.31543 14.36517 113.10241 15.267813 112.92578 16.146484 C 112.89723 16.29008 112.85393 16.294869 113.01562 16.292969 C 113.40739 16.287362 113.80159 16.291016 114.19336 16.291016 C 114.31897 15.751883 114.44752 15.049041 114.56445 14.484375 C 114.5806 14.405442 114.6875 13.933708 114.6875 13.867188 C 114.71924 13.890807 115.02798 14.499829 115.08398 14.607422 L 115.32227 15.068359 C 115.34907 15.121802 115.36713 15.160744 115.39453 15.214844 L 115.79102 15.980469 C 115.83392 16.064443 115.92677 16.202696 115.94727 16.291016 L 117.42578 16.291016 C 117.26226 15.981353 117.05692 15.653327 116.88281 15.341797 L 116.60547 14.867188 C 116.41269 14.530172 116.13006 14.063747 115.96094 13.744141 L 116.82422 12.964844 C 116.93428 12.88087 117.1335 12.675174 117.25977 12.564453 L 118.27539 11.636719 C 117.82831 11.636719 117.38133 11.637326 116.93359 11.636719 C 116.73273 11.636109 116.79179 11.613459 116.68359 11.714844 L 114.7832 13.525391 C 114.78507 13.44081 115.14265 11.787453 115.18555 11.572266 C 115.21859 11.405625 115.25616 11.244504 115.28906 11.085938 C 115.31828 10.945997 115.5918 9.685227 115.5918 9.609375 L 114.30469 9.609375 z M 84.115234 10.091797 C 83.854333 10.091022 83.591549 10.101562 83.341797 10.101562 L 81.890625 10.101562 C 81.881925 10.205374 81.128581 13.661304 81.066406 13.962891 C 81.013516 14.220322 80.952017 14.477203 80.900391 14.740234 L 80.654297 15.892578 C 80.640617 15.950418 80.628221 16.019335 80.613281 16.083984 C 80.602081 16.131874 80.577432 16.234442 80.576172 16.291016 L 81.931641 16.291016 L 82.351562 14.302734 C 82.368972 14.215024 82.408286 14.089701 82.410156 14.003906 C 83.531974 14.003906 84.560185 14.111929 85.412109 13.431641 C 85.88972 13.05042 86.189453 12.440043 86.189453 11.787109 C 86.189453 11.386656 86.142101 11.128161 85.910156 10.806641 C 85.810636 10.66922 85.763366 10.627903 85.646484 10.523438 C 85.550704 10.438247 85.430814 10.364996 85.316406 10.304688 C 84.977873 10.127077 84.550069 10.093088 84.115234 10.091797 z M 98.144531 10.101562 C 98.099771 10.101562 98.107689 10.125636 98.099609 10.166016 L 97.957031 10.845703 C 97.805934 11.612439 97.610042 12.411737 97.457031 13.179688 L 96.878906 15.888672 C 96.863966 15.963312 96.852821 16.006047 96.837891 16.080078 C 96.822351 16.160268 96.802734 16.205221 96.802734 16.291016 L 99.007812 16.291016 C 100.01891 16.291016 101.1298 16.090616 101.63477 15.302734 C 102.01907 14.702639 102.07058 13.657228 101.24414 13.248047 C 101.13716 13.195207 101.05656 13.156001 100.94336 13.123047 L 100.82812 13.087891 C 101.06381 13.067961 101.45301 12.886298 101.6582 12.738281 C 101.7024 12.706591 101.72384 12.685904 101.76367 12.652344 C 101.88989 12.546011 101.85652 12.576265 101.96094 12.453125 C 102.11764 12.269073 102.22894 12.01463 102.2793 11.771484 C 102.3552 11.403986 102.32539 10.982622 102.07227 10.681641 C 101.70412 10.245106 101.1057 10.101563 100.45898 10.101562 L 98.144531 10.101562 z M 99.777344 10.929688 C 100.08844 10.930876 100.39336 10.955685 100.62305 11.074219 C 100.90289 11.219108 100.9375 11.412228 100.9375 11.677734 C 100.9375 12.06577 100.68912 12.364967 100.43164 12.498047 C 100.10144 12.668422 99.789291 12.703125 99.294922 12.703125 L 98.871094 12.703125 C 98.871094 12.637215 98.935105 12.352026 98.953125 12.265625 L 99.226562 10.9375 C 99.402394 10.9375 99.590687 10.928974 99.777344 10.929688 z M 83.486328 11.013672 C 83.952285 11.012597 84.449159 11.059621 84.697266 11.445312 C 84.90251 11.765572 84.779915 12.280348 84.640625 12.496094 C 84.229576 13.132878 83.411242 13.087891 82.601562 13.087891 C 82.717884 12.589788 82.818665 12.052967 82.935547 11.544922 C 82.957347 11.452872 83.041016 11.088568 83.041016 11.019531 C 83.178915 11.019531 83.331009 11.01403 83.486328 11.013672 z M 106.08789 11.527344 L 105.70312 11.552734 C 104.96626 11.616174 104.02715 12.008576 103.50977 12.523438 C 103.47747 12.555177 103.46855 12.555974 103.43555 12.583984 L 103.05273 13.025391 C 102.82947 13.336315 102.71997 13.556761 102.59375 13.933594 C 102.50855 14.18673 102.44531 14.554387 102.44531 14.894531 C 102.44531 15.755184 102.93704 16.386719 103.80078 16.386719 C 104.31195 16.386719 104.63454 16.271188 104.97656 16.015625 C 105.11897 15.908031 105.22096 15.797748 105.33789 15.664062 C 105.39389 15.600022 105.44173 15.534315 105.49023 15.460938 L 105.63672 15.236328 C 105.63672 15.343922 105.4707 16.102622 105.4707 16.291016 L 106.78516 16.291016 C 106.78516 16.214556 106.79563 16.202846 106.79883 16.140625 C 106.81813 15.775602 106.84919 15.449701 106.92188 15.085938 C 106.99778 14.702849 107.07566 14.34493 107.16211 13.96875 L 107.62109 11.894531 C 107.63229 11.841691 107.64714 11.801454 107.64844 11.746094 C 107.49048 11.670244 106.89342 11.579562 106.73047 11.568359 C 106.47738 11.551559 106.48331 11.544746 106.21094 11.541016 C 106.14754 11.540362 106.13143 11.527344 106.08789 11.527344 z M 89.710938 11.537109 C 89.420708 11.540203 89.155651 11.570386 88.802734 11.660156 C 88.277884 11.793842 87.773986 12.051741 87.355469 12.390625 C 87.147798 12.55918 86.979662 12.733735 86.810547 12.941406 C 86.593493 13.208172 86.411455 13.552611 86.300781 13.882812 C 86.270301 13.972993 86.239983 14.080479 86.220703 14.171875 C 86.174673 14.390142 86.157259 14.586845 86.136719 14.828125 C 86.124299 14.976748 86.17399 15.328202 86.21875 15.46875 C 86.28466 15.673947 86.350173 15.784707 86.472656 15.941406 C 86.694658 16.226843 87.114661 16.386719 87.490234 16.386719 C 87.982129 16.386719 88.285534 16.291163 88.667969 16.017578 C 88.802915 15.921188 88.917883 15.788546 89.027344 15.666016 C 89.087044 15.598846 89.127537 15.536876 89.181641 15.462891 C 89.212731 15.420601 89.223333 15.399622 89.251953 15.355469 C 89.276833 15.317519 89.296352 15.271799 89.326172 15.25 C 89.326172 15.33584 89.296883 15.437557 89.283203 15.521484 L 89.173828 16.197266 C 89.166328 16.258836 89.145204 16.286109 89.214844 16.292969 L 90.476562 16.291016 C 90.496453 16.205226 90.48819 16.074036 90.5 15.986328 L 90.529297 15.673828 C 90.616957 14.892808 90.926541 13.66397 91.095703 12.871094 L 91.339844 11.759766 C 91.339844 11.729936 91.242809 11.713158 91.214844 11.705078 C 91.046943 11.656528 90.929534 11.639338 90.759766 11.611328 L 90.285156 11.554688 C 90.069205 11.543959 89.885075 11.535253 89.710938 11.537109 z M 95.228516 11.539062 C 94.841741 11.539062 94.451238 11.602488 94.148438 11.691406 C 93.613645 11.848712 93.160577 12.068575 92.726562 12.419922 C 92.607766 12.515702 92.425901 12.672305 92.332031 12.792969 L 92.1875 12.962891 C 91.926289 13.304903 91.734895 13.659732 91.621094 14.107422 C 91.323847 15.277132 91.676565 16.291016 92.955078 16.291016 C 93.329437 16.291016 93.645415 16.218375 93.955078 16.058594 C 94.294009 15.883831 94.570904 15.497403 94.611328 15.470703 C 94.605728 15.542823 94.563675 15.677664 94.546875 15.746094 C 94.522605 15.843094 94.501526 15.94558 94.478516 16.035156 C 94.426286 16.235359 94.37338 16.396031 94.296875 16.566406 C 94.026981 17.168369 93.563774 17.441902 92.939453 17.507812 C 92.773419 17.525223 92.603363 17.509766 92.433594 17.509766 C 92.252016 17.510373 91.976577 17.453055 91.824219 17.410156 C 91.732219 17.384016 91.643261 17.349966 91.560547 17.316406 C 91.517647 17.298386 91.486001 17.281649 91.4375 17.261719 C 91.39334 17.244309 91.359744 17.213324 91.3125 17.208984 C 91.3112 17.264344 91.272009 17.385353 91.255859 17.439453 L 91.064453 18.126953 L 91.414062 18.230469 C 92.343705 18.46302 93.564436 18.477288 94.423828 18.048828 C 94.857235 17.833035 95.181298 17.466089 95.396484 17.035156 C 95.734108 16.357948 95.836004 15.732436 96.003906 14.998047 L 96.484375 12.837891 C 96.509255 12.730905 96.720703 11.83749 96.720703 11.746094 C 96.471954 11.626692 95.508352 11.539062 95.228516 11.539062 z M 111.33984 11.541016 C 110.96024 11.546701 110.57615 11.652079 110.29492 11.84375 C 110.07231 11.995501 109.91499 12.177701 109.75391 12.384766 C 109.74021 12.402176 109.7292 12.415408 109.7168 12.429688 C 109.7168 12.306551 109.83984 11.723167 109.83984 11.636719 L 108.67383 11.634766 C 108.62103 11.640366 108.62604 11.638443 108.61914 11.689453 C 108.55264 12.158989 108.52734 12.300821 108.42969 12.773438 L 108.13477 14.175781 C 108.08197 14.413933 108.03552 14.638194 107.98828 14.876953 C 107.94288 15.104556 107.88647 15.344967 107.83984 15.578125 C 107.81684 15.693793 107.79303 15.806597 107.76562 15.929688 L 107.68945 16.291016 L 108.99023 16.291016 L 109.10547 15.736328 C 109.12477 15.639938 109.14031 15.560628 109.16211 15.464844 L 109.3418 14.628906 C 109.44254 14.189898 109.55773 13.41707 109.76172 13.037109 C 109.85372 12.866127 109.87092 12.86363 109.96484 12.746094 L 110.14258 12.582031 C 110.56978 12.292907 111.27355 12.330594 111.31836 12.923828 C 111.34016 13.216733 111.07737 14.265577 111.00586 14.625 L 110.66016 16.291016 L 111.94727 16.291016 L 112.55469 13.419922 C 112.61939 13.11712 112.69848 12.750219 112.62695 12.394531 C 112.52935 11.906371 112.1681 11.646732 111.71289 11.568359 C 111.59163 11.547529 111.46638 11.539121 111.33984 11.541016 z M 89.585938 12.402344 C 89.695398 12.402344 89.82762 12.422211 89.900391 12.457031 C 89.899091 12.517951 89.863279 12.652931 89.849609 12.707031 C 89.711582 13.251159 89.620272 13.853941 89.380859 14.347656 L 88.986328 15.007812 C 88.821554 15.194992 88.652701 15.379393 88.396484 15.472656 C 88.340514 15.492546 88.211879 15.525391 88.134766 15.525391 C 87.649733 15.525391 87.503906 15.187542 87.503906 14.730469 C 87.503906 14.080008 87.798891 13.514894 88.091797 13.152344 C 88.217408 12.997513 88.254777 12.984891 88.357422 12.884766 C 88.445082 12.799576 88.564414 12.717647 88.673828 12.652344 C 88.939987 12.493778 89.204111 12.402344 89.585938 12.402344 z M 105.89648 12.402344 C 106.00594 12.402344 106.13817 12.422211 106.21094 12.457031 C 106.20594 12.522291 106.17245 12.638476 106.15625 12.703125 C 106.13635 12.785235 106.11696 12.863945 106.09766 12.947266 C 105.97392 13.470248 105.91332 13.845212 105.68945 14.347656 C 105.49298 14.788578 105.16836 15.28413 104.70508 15.470703 C 104.66314 15.48736 104.51545 15.524754 104.45898 15.525391 C 104.45898 15.525391 104.45703 15.525391 104.45703 15.525391 C 104.05836 15.52458 103.81445 15.276286 103.81445 14.853516 C 103.81445 14.274566 103.91548 13.909028 104.19531 13.441406 C 104.23071 13.382306 104.25776 13.342388 104.29883 13.285156 L 104.54297 12.994141 C 104.68105 12.85672 104.82702 12.741963 104.99805 12.640625 C 105.25361 12.489481 105.53085 12.402344 105.89648 12.402344 z M 94.859375 12.416016 L 95.037109 12.416016 C 95.149043 12.416016 95.204872 12.455161 95.296875 12.457031 C 95.295675 12.533541 94.96876 13.822494 94.941406 13.910156 C 94.895386 14.060039 94.835699 14.223168 94.775391 14.359375 C 94.618692 14.715063 94.441379 15.006419 94.164062 15.253906 C 94.009231 15.391327 93.731423 15.511719 93.501953 15.511719 C 93.040539 15.511719 92.886719 15.235367 92.886719 14.785156 C 92.886719 14.104821 93.14967 13.575621 93.453125 13.189453 C 93.76965 12.787133 94.335132 12.416016 94.859375 12.416016 z M 99.105469 13.519531 C 99.548646 13.516616 100.04863 13.544368 100.30469 13.802734 C 100.42343 13.923351 100.5 14.056092 100.5 14.251953 C 100.5 14.745716 100.27816 15.126671 99.837891 15.300781 C 99.374003 15.48488 98.911172 15.457031 98.28125 15.457031 L 98.693359 13.525391 C 98.817255 13.525391 98.957743 13.520503 99.105469 13.519531 z " />
  <g
     id="g62800">
    <path
       style="color:#000000;fill:#000000;stroke-width:0.0466782;-inkscape-stroke:none"
       d="M 77.308444,11.065911 C 75.670926,7.1049848 71.144073,5.2224059 67.19617,6.8612312 63.249107,8.4998231 61.375911,13.039792 63.012775,17.000952 c 1.637005,3.960273 6.164371,5.842898 10.111481,4.20398 3.94809,-1.638826 5.821146,-6.178095 4.184188,-10.139021"
       id="path1116" />
    <path
       style="color:#000000;fill:#000000;stroke-width:0.0466782;-inkscape-stroke:none"
       d="M 72.940144,7.3109523 C 69.239075,5.7742589 64.994953,7.539022 63.460173,11.2526 c -1.533986,3.712925 0.221862,7.969091 3.922183,9.504944 3.701069,1.53674 7.945192,-0.227883 9.479925,-3.941554 1.534732,-3.713019 -0.221629,-7.9690445 -3.922137,-9.5050377"
       id="path1120" />
    <path
       style="color:#000000;fill:#e1e953;stroke-width:0.0466782;-inkscape-stroke:none"
       d="m 76.593143,12.980908 c 0,-3.5657485 -2.879205,-6.4561566 -6.431931,-6.4561566 -3.551931,0 -6.431043,2.8904081 -6.431043,6.4561566 0,3.565748 2.879112,6.456763 6.431043,6.456763 3.552726,0 6.431931,-2.891015 6.431931,-6.456763"
       id="path1124" />
    <path
       style="color:#000000;fill:#000000;stroke-width:0.0466782;-inkscape-stroke:none"
       d="m 70.160041,6.6994678 c -2.504706,0 -4.762344,1.5155481 -5.719995,3.8381622 -0.957556,2.323688 -0.426125,4.997463 1.346153,6.773942 1.772092,1.776666 4.435737,2.305997 6.749389,1.341345 2.312766,-0.964185 3.818605,-3.233119 3.814871,-5.747675 -0.0018,-3.430988 -2.771939,-6.2131494 -6.190418,-6.2169303 z m 0,12.9081122 c -3.687299,0 -6.675964,-3.000475 -6.675964,-6.702338 0,-3.7010681 2.988665,-6.7018702 6.675964,-6.7018702 3.687299,0 6.676478,3.0007087 6.676478,6.7018702 0,3.701676 -2.989179,6.702338 -6.676478,6.702338"
       id="path1128" />
    <path
       style="color:#000000;fill:#8fd7de;stroke-width:0.0466782;-inkscape-stroke:none"
       d="m 74.422429,15.937884 c 0,-2.960005 -2.390625,-5.359405 -5.339194,-5.359405 -2.948149,0 -5.338773,2.3994 -5.338773,5.359405 0,2.959212 2.390624,5.359032 5.338773,5.359032 2.948569,0 5.339194,-2.39982 5.339194,-5.359032"
       id="path1132" />
    <path
       style="color:#000000;fill:#000000;stroke-width:0.0466782;-inkscape-stroke:none"
       d="m 69.081989,10.82051 c -2.676389,5.13e-4 -4.896404,2.077834 -5.084331,4.75777 -0.187833,2.679796 1.720886,5.049182 4.370201,5.426108 2.649689,0.376507 5.138711,-1.367438 5.69941,-3.994674 0.322126,-1.51046 -0.05303,-3.085523 -1.021133,-4.288561 -0.965445,-1.20131 -2.423159,-1.90013 -3.96438,-1.90083 z m 0.01251,10.720725 c -0.396952,4.2e-4 -0.792736,-0.04126 -1.180866,-0.124024 -3.013265,-0.648828 -4.932113,-3.626944 -4.286226,-6.652019 0.645886,-3.025261 3.612146,-4.9522778 6.625832,-4.303777 3.014012,0.64766 4.933466,3.625169 4.288887,6.650244 -0.550943,2.576591 -2.81535,4.420427 -5.440112,4.429576 z"
       id="path1136" />
    <path
       style="color:#000000;fill:#fed11a;stroke-width:0.0466782;-inkscape-stroke:none"
       d="m 77.059094,16.163255 c 0,-1.836087 -1.482827,-3.324515 -3.312052,-3.324515 -1.829319,0 -3.312099,1.488428 -3.312099,3.324515 0,1.836928 1.48278,3.325262 3.312099,3.325262 1.829225,0 3.312052,-1.488334 3.312052,-3.325262"
       id="path1140" />
    <path
       style="color:#000000;fill:#000000;stroke-width:0.0466782;-inkscape-stroke:none"
       d="m 73.747051,13.081905 c -1.242247,-6.07e-4 -2.363131,0.750539 -2.838549,1.902417 -0.475557,1.152018 -0.213179,2.476746 0.665445,3.360271 0.876803,0.881471 2.199617,1.145623 3.347808,0.668385 1.14749,-0.477844 1.895509,-1.602369 1.894902,-2.849704 -0.0018,-1.700814 -1.375094,-3.079689 -3.069606,-3.081369 m 0,6.649498 c -1.963332,0 -3.554266,-1.597375 -3.554266,-3.568129 0,-1.970801 1.590934,-3.568176 3.554266,-3.568176 1.963286,0 3.554592,1.597375 3.554592,3.568176 -0.002,1.970334 -1.592567,3.566495 -3.554592,3.568129"
       id="path1144" />
  </g>
  <path
     id="rect1362"
     style="fill:#00bd40;fill-opacity:1;stroke-width:4.87214;stroke-linecap:round;stroke-linejoin:round;stop-color:#000000"
     d="M 5.5585938,0 C 2.4791611,0 0,2.4791611 0,5.5585938 V 22.441406 C 0,25.520839 2.4791611,28 5.5585938,28 H 56.734127 V 0 Z"
     sodipodi:nodetypes="ssssccs" />
  <path
     id="path81404"
     style="color:#000000;font-size:12.3467px;-inkscape-font-specification:'sans-serif Bold';fill:#ffffff;stroke-width:0.308669;-inkscape-stroke:none"
     d="M 23.697266 8.8457031 C 22.362109 8.8457031 21.315337 9.3012309 20.556641 10.208984 C 19.797945 11.112394 19.417969 12.343092 19.417969 13.902344 C 19.417969 15.448564 19.797945 16.677748 20.556641 17.589844 C 21.315337 18.497598 22.362109 18.951172 23.697266 18.951172 C 25.036142 18.951172 26.085054 18.497598 26.84375 17.589844 C 27.602447 16.677748 27.982422 15.448564 27.982422 13.902344 C 27.982422 12.343092 27.600306 11.112394 26.837891 10.208984 C 26.075475 9.3012309 25.028704 8.8457031 23.697266 8.8457031 z M 10.419922 9.0488281 L 10.419922 18.75 L 13.349609 18.75 C 14.011609 18.75 14.584877 18.693004 15.068359 18.580078 C 15.551843 18.467152 15.995009 18.267128 16.400391 17.980469 C 16.939661 17.598257 17.38692 17.052148 17.740234 16.339844 C 18.093548 15.623196 18.269531 14.811613 18.269531 13.908203 C 18.269531 12.970048 18.104437 12.155432 17.773438 11.464844 C 17.446158 10.769913 16.99657 10.218819 16.423828 9.8105469 C 16.08911 9.5673211 15.676469 9.3802995 15.185547 9.25 C 14.694626 9.1153571 14.11047 9.0488281 13.433594 9.0488281 L 10.419922 9.0488281 z M 31.759766 9.0488281 L 28.691406 18.75 L 30.849609 18.75 L 31.423828 16.789062 L 34.503906 16.789062 L 35.078125 18.75 L 37.292969 18.75 L 34.224609 9.0488281 L 31.759766 9.0488281 z M 38.486328 9.0488281 L 38.486328 18.75 L 40.617188 18.75 L 40.617188 15.191406 L 41.605469 15.191406 L 43.871094 18.75 L 46.486328 18.75 L 43.714844 14.59375 C 44.242956 14.294061 44.647036 13.916549 44.929688 13.464844 C 45.216058 13.013139 45.359375 12.429538 45.359375 11.712891 C 45.359375 11.191693 45.266033 10.759138 45.080078 10.416016 C 44.897842 10.06855 44.650295 9.7874784 44.337891 9.5703125 C 44.029205 9.353147 43.699018 9.2116344 43.345703 9.1464844 C 42.992388 9.0813344 42.570999 9.0488281 42.080078 9.0488281 L 38.486328 9.0488281 z M 23.703125 10.677734 C 23.9709 10.677734 24.227195 10.736246 24.472656 10.853516 C 24.721836 10.970786 24.941185 11.159323 25.130859 11.419922 C 25.316815 11.671834 25.468692 12.001885 25.583984 12.410156 C 25.699276 12.818428 25.755859 13.31448 25.755859 13.896484 C 25.755859 14.439399 25.705885 14.912478 25.605469 15.316406 C 25.505053 15.715992 25.350847 16.06403 25.142578 16.359375 C 24.956623 16.619974 24.739414 16.811544 24.490234 16.9375 C 24.241054 17.059113 23.978338 17.121094 23.703125 17.121094 C 23.427912 17.121094 23.165196 17.059113 22.916016 16.9375 C 22.666836 16.815887 22.449627 16.627349 22.263672 16.371094 C 22.077717 16.114838 21.927792 15.784788 21.8125 15.380859 C 21.700927 14.972588 21.644531 14.480005 21.644531 13.902344 C 21.644531 13.337712 21.703067 12.84166 21.818359 12.416016 C 21.937371 11.986026 22.089436 11.649475 22.275391 11.40625 C 22.476223 11.145651 22.695572 10.960583 22.933594 10.847656 C 23.175335 10.73473 23.43163 10.677734 23.703125 10.677734 z M 40.617188 10.833984 L 41.392578 10.833984 C 41.649196 10.833984 41.874966 10.841995 42.068359 10.859375 C 42.261753 10.872403 42.431127 10.91488 42.576172 10.984375 C 42.784441 11.084271 42.930086 11.220799 43.015625 11.394531 C 43.101164 11.568264 43.144531 11.776305 43.144531 12.019531 C 43.144531 12.293159 43.109725 12.512688 43.039062 12.677734 C 42.972118 12.838438 42.863608 12.986451 42.714844 13.121094 C 42.558642 13.260077 42.36535 13.347625 42.134766 13.386719 C 41.904181 13.425812 41.617547 13.445312 41.275391 13.445312 L 40.617188 13.445312 L 40.617188 10.833984 z M 12.5625 10.859375 L 13.103516 10.859375 C 13.564684 10.859375 13.909853 10.883867 14.136719 10.931641 C 14.367303 10.975074 14.59112 11.059591 14.810547 11.185547 C 15.241963 11.441802 15.556794 11.797858 15.753906 12.253906 C 15.954738 12.705612 16.054688 13.250204 16.054688 13.888672 C 16.054688 14.531482 15.963486 15.073043 15.78125 15.511719 C 15.599014 15.946051 15.31238 16.294089 14.921875 16.554688 C 14.69501 16.69802 14.462632 16.797056 14.224609 16.853516 C 13.986587 16.905636 13.613032 16.931641 13.103516 16.931641 L 12.5625 16.931641 L 12.5625 10.859375 z M 32.964844 11.53125 L 33.984375 15.009766 L 31.943359 15.009766 L 32.964844 11.53125 z " />
</svg>
